<svg width="128" height="128" viewBox="0 0 128 128" fill="none" xmlns="http://www.w3.org/2000/svg">
<rect width="128" height="128" rx="30" fill="url(#paint0_linear_102_14)"/>
<path d="M98.0252 74.0131L94.4607 72.7169C93.7853 69.9177 92.693 67.2359 91.2202 64.7614L92.8404 61.3104C93.0078 60.9527 93.0603 60.5518 92.9906 60.163C92.921 59.7743 92.7327 59.4166 92.4516 59.1392L87.0075 53.679C86.7275 53.3965 86.3671 53.2074 85.9755 53.1378C85.5839 53.0682 85.1803 53.1214 84.8202 53.2901L81.369 54.9104C79.568 53.8283 77.6559 52.9428 75.6657 52.2694V47.4086L84.3665 32.3403C84.545 32.0315 84.6548 31.6877 84.6884 31.3325C84.7219 30.9774 84.6785 30.6193 84.5609 30.2825L79.7326 17.0126C79.5615 16.536 79.2468 16.1241 78.8318 15.8339C78.4168 15.5437 77.922 15.3894 77.4156 15.3924H74.1751C73.5219 15.3924 72.8955 15.6518 72.4337 16.1137C71.9718 16.5756 71.7123 17.202 71.7123 17.8551V29.6182L66.4303 33.8794L61.1483 29.6182V17.8551C61.1483 17.202 60.8888 16.5756 60.4269 16.1137C59.9651 15.6518 59.3387 15.3924 58.6855 15.3924H55.445C54.9391 15.3918 54.4454 15.547 54.0308 15.8369C53.6163 16.1268 53.3011 16.5373 53.128 17.0126L48.3645 30.3149C48.2469 30.6517 48.2034 31.0099 48.237 31.365C48.2706 31.7201 48.3804 32.0638 48.5589 32.3726L57.2597 47.441V52.3018C55.2694 52.9753 53.3574 53.8606 51.5564 54.9427L48.1052 53.3225C47.7475 53.1551 47.3467 53.1026 46.9579 53.1722C46.5692 53.2419 46.2115 53.4303 45.9341 53.7114L40.3766 59.1392C40.0975 59.4179 39.9106 59.7754 39.8411 60.1636C39.7715 60.5519 39.8227 60.9522 39.9878 61.3104L41.608 64.7614C40.1285 67.2325 39.0357 69.9154 38.3675 72.7169L34.7868 74.0131C34.4154 74.1494 34.0949 74.3967 33.8688 74.7213C33.6428 75.0459 33.522 75.4322 33.523 75.8278V83.5402C33.522 83.9358 33.6428 84.3221 33.8688 84.6467C34.0949 84.9714 34.4154 85.2186 34.7868 85.3549L38.3675 86.6511C39.0357 89.4526 40.1285 92.1355 41.608 94.6066L39.9878 98.0577C39.8204 98.4155 39.7679 98.8162 39.8375 99.205C39.9072 99.5937 40.0955 99.9514 40.3766 100.229L45.8369 105.689C46.1143 105.97 46.4719 106.159 46.8607 106.228C47.2495 106.298 47.6503 106.245 48.008 106.078L51.4592 104.458C53.9382 105.921 56.6185 107.013 59.4146 107.698L60.7108 111.263C60.8471 111.634 61.0943 111.955 61.419 112.181C61.7436 112.407 62.1299 112.528 62.5255 112.527H70.2379C70.6335 112.528 71.0198 112.407 71.3444 112.181C71.669 111.955 71.9163 111.634 72.0526 111.263L73.3488 107.698C76.146 107.017 78.8269 105.925 81.3042 104.458L84.7554 106.078C85.1155 106.247 85.5191 106.3 85.9107 106.23C86.3023 106.161 86.6627 105.972 86.9427 105.689L92.3867 100.229C92.6679 99.9514 92.8562 99.5937 92.9258 99.205C92.9955 98.8162 92.943 98.4155 92.7756 98.0577L91.1554 94.6066C92.6281 92.1322 93.7205 89.4503 94.3959 86.6511L97.9604 85.3549C98.3318 85.2186 98.6522 84.9714 98.8783 84.6467C99.1044 84.3221 99.2252 83.9358 99.2242 83.5402V75.8278C99.2302 75.4398 99.1189 75.059 98.905 74.7352C98.6911 74.4115 98.3845 74.1598 98.0252 74.0131ZM66.3979 97.0693C62.9626 97.0693 59.6045 96.0506 56.7481 94.1421C53.8918 92.2335 51.6655 89.5209 50.3509 86.3471C49.0363 83.1733 48.6923 79.681 49.3625 76.3117C50.0327 72.9424 51.687 69.8475 54.1161 67.4184C56.5452 64.9893 59.6401 63.335 63.0093 62.6648C66.3786 61.9946 69.871 62.3386 73.0448 63.6533C76.2186 64.9679 78.9312 67.1942 80.8398 70.0505C82.7483 72.9068 83.767 76.2649 83.767 79.7002C83.7649 81.9812 83.3135 84.2394 82.4387 86.3459C81.5638 88.4524 80.2826 90.366 78.6683 91.9773C77.0539 93.5887 75.1379 94.8663 73.0298 95.7372C70.9217 96.6081 68.6626 97.0553 66.3817 97.0532L66.3979 97.0693Z" fill="white"/>
<path d="M66.3818 64C63.3304 64 60.3475 64.9051 57.8106 66.6007C55.2736 68.2963 53.2966 70.7063 52.1296 73.5257C50.9626 76.3452 50.6581 79.4474 51.2546 82.44C51.8511 85.4325 53.3218 88.181 55.4806 90.3375C57.6394 92.4941 60.3894 93.9618 63.3826 94.5552C66.3757 95.1485 69.4777 94.8407 72.2959 93.6708C75.1141 92.5008 77.522 90.5213 79.215 87.9826C80.9079 85.4439 81.8099 82.4601 81.8067 79.4086C81.8024 75.3205 80.1753 71.4013 77.2831 68.5121C74.3909 65.6229 70.47 64 66.3818 64ZM66.3818 66.2035C69.6824 66.1991 72.8636 67.437 75.2932 69.6709C74.906 69.5655 74.4977 69.5655 74.1104 69.6709C73.8064 69.791 73.5299 69.9717 73.2978 70.2018C73.0656 70.432 72.8826 70.7069 72.7599 71.0099C72.6372 71.3129 72.5773 71.6377 72.5839 71.9646C72.5904 72.2914 72.6633 72.6135 72.798 72.9114C73.2771 73.7349 73.8188 74.5203 74.4183 75.2608C74.91 76.1325 75.2143 77.0971 75.312 78.0931C75.4096 79.0891 75.2984 80.0945 74.9854 81.0451C74.4021 83.2324 73.2031 87.0238 73.2031 87.0238L68.3424 73.041H69.8492C69.9968 73.0411 70.1387 72.9835 70.2446 72.8806C70.3505 72.7778 70.4121 72.6377 70.4163 72.4901C70.4163 72.3397 70.3565 72.1955 70.2502 72.0891C70.1438 71.9828 69.9996 71.9231 69.8492 71.9231H62.5256C62.3781 71.9273 62.238 71.9888 62.1351 72.0947C62.0322 72.2006 61.9747 72.3425 61.9748 72.4901C61.9748 72.6362 62.0328 72.7763 62.1361 72.8796C62.2394 72.983 62.3795 73.041 62.5256 73.041H63.7894L65.9768 78.7605L63.1413 87.2506L58.2806 73.0573H59.8036C59.9512 73.053 60.0913 72.9914 60.1942 72.8855C60.297 72.7796 60.3546 72.6377 60.3545 72.4901C60.3545 72.344 60.2965 72.2039 60.1931 72.1006C60.0898 71.9973 59.9497 71.9393 59.8036 71.9393H55.3317C56.5432 70.1586 58.1713 68.7007 60.0746 67.6926C61.9778 66.6845 64.0985 66.1567 66.2522 66.155L66.3818 66.2035ZM53.1768 79.4086C53.1723 77.5904 53.5476 75.7914 54.2786 74.1266L60.6461 91.3174C58.4171 90.2405 56.5353 88.5594 55.2148 86.4655C53.8942 84.3716 53.1881 81.9489 53.1768 79.4734V79.4086ZM62.5418 92.0628L66.6735 80.64L70.8051 91.8684C69.3913 92.3756 67.9001 92.6333 66.3981 92.6298C65.0916 92.6336 63.7919 92.4425 62.5418 92.0628ZM73.3651 90.6207C74.1915 88.1904 77.0593 79.6679 77.6102 77.9828C78.1291 76.7646 78.4307 75.465 78.5013 74.1428C79.7716 77.0477 79.9514 80.3133 79.008 83.3402C78.0645 86.3671 76.061 88.952 73.3651 90.6207Z" fill="white"/>
<path d="M104.36 43.3093L101.671 40.6359C101.551 40.5176 101.395 40.4422 101.228 40.4217C101.061 40.4012 100.892 40.4366 100.747 40.5225L94.0555 44.5569C93.9437 44.6233 93.8516 44.7184 93.789 44.8324C93.7263 44.9464 93.6952 45.075 93.699 45.205V47.0359L88.5628 52.1559C88.505 52.2131 88.4591 52.2812 88.4278 52.3563C88.3965 52.4314 88.3804 52.512 88.3804 52.5934C88.3804 52.6747 88.3965 52.7552 88.4278 52.8303C88.4591 52.9054 88.505 52.9735 88.5628 53.0308L91.9654 56.4496C92.0226 56.5074 92.0907 56.5533 92.1658 56.5846C92.2409 56.6159 92.3215 56.6319 92.4028 56.6319C92.4842 56.6319 92.5647 56.6159 92.6398 56.5846C92.7149 56.5533 92.783 56.5074 92.8403 56.4496L97.9765 51.3133H99.8074C99.938 51.3106 100.066 51.2751 100.179 51.21C100.292 51.1448 100.387 51.0522 100.455 50.9407L104.506 44.2328C104.588 44.0846 104.618 43.9133 104.592 43.7461C104.565 43.5788 104.484 43.4251 104.36 43.3093Z" fill="white"/>
<path d="M23.4935 57.6486C23.4923 57.7746 23.516 57.8995 23.5633 58.0163C23.6105 58.1331 23.6804 58.2394 23.7689 58.3291L30.493 64.9721C30.6691 65.1484 30.9081 65.2475 31.1573 65.2476C31.4104 65.2434 31.6529 65.1451 31.8378 64.9721L35.1917 61.6506C35.3749 61.4711 35.4797 61.2265 35.4833 60.9701V58.6045H37.8813C38.0048 58.6054 38.1273 58.5814 38.2414 58.5341C38.3555 58.4868 38.4589 58.4171 38.5456 58.3291L44.5568 52.3341C44.6489 52.2464 44.7223 52.1408 44.7724 52.0238C44.8225 51.9068 44.8484 51.7809 44.8484 51.6537C44.8484 51.5264 44.8225 51.4005 44.7724 51.2835C44.7223 51.1665 44.6489 51.061 44.5568 50.9732L41.6565 48.1053C42.2209 46.841 43.0339 45.7031 44.0471 44.7595C45.0603 43.8159 46.253 43.0858 47.5542 42.6126C47.7436 42.5482 47.908 42.426 48.0243 42.2632C48.1405 42.1005 48.2028 41.9053 48.2023 41.7053C48.2053 41.5047 48.144 41.3084 48.0274 41.1452C47.9108 40.9819 47.745 40.8602 47.5542 40.798C41.8509 38.9185 36.3745 44.395 33.7497 47.036C31.9536 48.7445 30.7214 50.9602 30.2175 53.3874H27.7385C27.6125 53.3862 27.4876 53.4099 27.3708 53.4572C27.254 53.5044 27.1477 53.5743 27.058 53.6628L23.7041 56.9033C23.6189 57.0059 23.5562 57.1253 23.5199 57.2537C23.4836 57.382 23.4746 57.5166 23.4935 57.6486Z" fill="white"/>
<defs>
<linearGradient id="paint0_linear_102_14" x1="0" y1="64" x2="128" y2="64" gradientUnits="userSpaceOnUse">
<stop stop-color="#012E40"/>
<stop offset="1" stop-color="#025159"/>
</linearGradient>
</defs>
</svg>
